<svg xmlns="http://www.w3.org/2000/svg" viewBox="0 0 120 120" fill="none">
  <circle cx="60" cy="60" r="50" stroke="#0b1f33" stroke-width="2.4"/>
  <g stroke="#0b1f33" stroke-linecap="round">
    <line x1="60" y1="6" x2="60" y2="11.5" stroke="#e39b24" stroke-width="2.6"/>
    <line x1="87" y1="13.2" x2="84.3" y2="17.9" stroke-width="1.6"/>
    <line x1="106.8" y1="33" x2="102.1" y2="35.7" stroke="#e39b24" stroke-width="2.6"/>
    <line x1="114" y1="60" x2="108.5" y2="60" stroke-width="1.6"/>
    <line x1="106.8" y1="87" x2="102.1" y2="84.3" stroke="#e39b24" stroke-width="2.6"/>
    <line x1="87" y1="106.8" x2="84.3" y2="102.1" stroke-width="1.6"/>
    <line x1="60" y1="114" x2="60" y2="108.5" stroke="#e39b24" stroke-width="2.6"/>
    <line x1="33" y1="106.8" x2="35.7" y2="102.1" stroke-width="1.6"/>
    <line x1="13.2" y1="87" x2="17.9" y2="84.3" stroke="#e39b24" stroke-width="2.6"/>
    <line x1="6" y1="60" x2="11.5" y2="60" stroke-width="1.6"/>
    <line x1="13.2" y1="33" x2="17.9" y2="35.7" stroke="#e39b24" stroke-width="2.6"/>
    <line x1="33" y1="13.2" x2="35.7" y2="17.9" stroke-width="1.6"/>
  </g>
  <path d="M71 34c-18-8-38 2-38 18 0 11 8 16 22 18 12 2 18 7 18 15 0 12-14 18-30 14" stroke="#0b1f33" stroke-width="7.2" stroke-linecap="round"/>
  <path d="M62 32h36" stroke="#e39b24" stroke-width="7.2" stroke-linecap="round"/>
  <path d="M86 32v50" stroke="#0b1f33" stroke-width="7.2" stroke-linecap="round"/>
</svg>
